#!OML:ASF I:\Actors\actors\Patient Classification 2\Patient 1\Session 1\actor1.ASF
:FULLY-SPECIFIED
:DEGREES
633
root -0.801647 18.5348 6.04875 -6.34306 -1.63633 -2.41655
lowerback 5.81189 0.195311 1.07304
upperback -0.852646 0.352924 0.355396
thorax -4.13739 0.154211 -0.268082
lowerneck -10.6294 -0.922983 1.3856
upperneck 21.2024 -1.71339 0.663456
head 8.32519 -0.637905 -0.187038
rclavicle -1.9133e-015 5.56597e-015
rhumerus -49.17 -8.44605 -82.7479
rradius 42.646
rwrist 22.333
rhand -7.66195 -27.85
rfingers 7.12502
rthumb 18.2341 -57.0153
lclavicle -1.9133e-015 5.56597e-015
lhumerus -43.4314 8.39503 87.3256
lradius 38.3155
lwrist -14.3075
lhand -7.47267 -22.2561
lfingers 7.12502
lthumb 18.4162 6.89212
rfemur 16.6344 5.3225 18.3104
rtibia 3.65764e-014
rfoot -21.8194 -13.3262
rtoes -5.66041
lfemur 3.68344 -5.19974 -12.4345
ltibia 22.1504
lfoot -22.2444 9.61532
ltoes -55.4822
634
root -0.796988 18.537 6.05394 -6.22095 -1.64571 -2.35231
lowerback 5.70766 0.213355 1.03923
upperback -0.879644 0.372628 0.338399
thorax -4.10638 0.164658 -0.268042
lowerneck -10.5118 -0.805439 1.53309
upperneck 21.1423 -1.54959 0.550066
head 8.28184 -0.560806 -0.231951
rclavicle 2.41026e-015 1.59028e-015
rhumerus -49.0278 -8.47053 -82.7676
rradius 42.7601
rwrist 22.3124
rhand -7.37783 -28.055
rfingers 7.12502
rthumb 18.5074 -57.1946
lclavicle 2.41026e-015 1.59028e-015
lhumerus -43.3668 7.84737 87.7489
lradius 38.6435
lwrist -13.7703
lhand -7.32976 -22.1161
lfingers 7.12502
lthumb 18.5536 7.01909
rfemur 16.5114 5.33922 18.2124
rtibia 1.59028e-015
rfoot -21.8661 -13.3048
rtoes -5.27907
lfemur 3.61321 -5.25967 -12.5314
ltibia 22.0853
lfoot -22.3008 9.6631
ltoes -55.4314
635
root -0.791123 18.5397 6.0605 -6.07983 -1.63942 -2.23959
lowerback 5.57162 0.221827 0.974412
upperback -0.907068 0.376374 0.304553
thorax -4.0581 0.167787 -0.266348
lowerneck -10.5471 -0.727317 1.61159
upperneck 21.2475 -1.44477 0.488938
head 8.32324 -0.509706 -0.255419
rclavicle 9.69075e-016 -3.37934e-015
rhumerus -48.8619 -8.4994 -82.7973
rradius 42.7737
rwrist 22.374
rhand -6.3752 -29.6654
rfingers 7.12502
rthumb 19.4716 -58.7104
lclavicle 9.69075e-016 -3.37934e-015
lhumerus -43.2956 7.34235 88.1433
lradius 38.9148
lwrist -13.2717
lhand -7.2782 -22.1981
lfingers 7.12502
lthumb 18.6032 6.93232
rfemur 16.3693 5.34622 18.0519
rtibia -1.43125e-014
rfoot -21.8747 -13.308
rtoes -5.03197
lfemur 3.51898 -5.33184 -12.6981
ltibia 22.0243
lfoot -22.3315 9.80545
ltoes -55.5049
636
root -0.785613 18.5425 6.06703 -5.94524 -1.62632 -2.12055
lowerback 5.44531 0.231847 0.911131
upperback -0.945129 0.38213 0.255883
thorax -4.02621 0.171589 -0.281042
lowerneck -10.5797 -0.722011 1.63037
upperneck 21.391 -1.45699 0.547095
head 8.37812 -0.506549 -0.241078
rclavicle -1.10822e-014 -3.77691e-015
rhumerus -48.7482 -8.48941 -82.8891
rradius 42.8272
rwrist 22.3225
rhand -7.38986 -27.9275
rfingers 7.12502
rthumb 18.4958 -57.0682
lclavicle -1.10822e-014 -3.77691e-015
lhumerus -42.522 7.86763 88.0429
lradius 37.3267
lwrist -13.8352
lhand -7.58675 -22.867
lfingers 7.12502
lthumb 18.3064 6.29156
rfemur 16.237 5.34628 17.8865
rtibia 4.29375e-014
rfoot -21.8512 -13.3274
rtoes -5.09724
lfemur 3.42471 -5.48539 -12.894
ltibia 21.9795
lfoot -22.3928 10.0244
ltoes -55.5641
637
root -0.782541 18.5452 6.07478 -5.81142 -1.60579 -2.07736
lowerback 5.29738 0.246688 0.890549
upperback -0.979805 0.398317 0.237758
thorax -3.97844 0.180018 -0.288914
lowerneck -10.6167 -0.733839 1.55862
upperneck 21.5536 -1.49976 0.712151
head 8.44184 -0.513994 -0.178926
rclavicle -5.96354e-016 -6.95746e-015
rhumerus -48.6625 -8.42762 -83.0076
rradius 42.9248
rwrist 22.1094
rhand -7.81924 -27.4655
rfingers 7.12502
rthumb 18.0828 -56.645
lclavicle -5.96354e-016 -6.95746e-015
lhumerus -43.1303 7.10954 88.503
lradius 39.1546
lwrist -13.2437
lhand -6.96502 -21.8822
lfingers 7.12502
lthumb 18.9045 7.21915
rfemur 16.1163 5.32773 17.8123
rtibia 9.54166e-015
rfoot -21.8462 -13.321
rtoes -5.14231
lfemur 3.32781 -5.60967 -12.9793
ltibia 21.9475
lfoot -22.4472 10.1351
ltoes -55.5246
